<svg width="24" height="26" viewBox="0 0 24 26" fill="none" xmlns="http://www.w3.org/2000/svg">
<path d="M15.2525 13.0364H13.2901C13.2901 16.2079 13.2901 20.1116 13.2901 20.1116H10.3823C10.3823 20.1116 10.3823 16.2457 10.3823 13.0364H9V10.5359H10.3823V8.91846C10.3823 7.76007 10.9264 5.95001 13.3168 5.95001L15.4716 5.95837V8.38571C15.4716 8.38571 14.1622 8.38571 13.9077 8.38571C13.6531 8.38571 13.2911 8.51447 13.2911 9.06688V10.5364H15.5066L15.2525 13.0364Z" fill="#505D68"/>
<mask id="mask0_5_2570" style="mask-type:alpha" maskUnits="userSpaceOnUse" x="9" y="5" width="7" height="16">
<path d="M15.2525 13.0364H13.2901C13.2901 16.2079 13.2901 20.1116 13.2901 20.1116H10.3823C10.3823 20.1116 10.3823 16.2457 10.3823 13.0364H9V10.5359H10.3823V8.91846C10.3823 7.76007 10.9264 5.95001 13.3168 5.95001L15.4716 5.95837V8.38571C15.4716 8.38571 14.1622 8.38571 13.9077 8.38571C13.6531 8.38571 13.2911 8.51447 13.2911 9.06688V10.5364H15.5066L15.2525 13.0364Z" fill="white"/>
</mask>
<g mask="url(#mask0_5_2570)">
<rect y="0.892334" width="24" height="24.2769" fill="#505D68"/>
</g>
</svg>
