<svg width="24" height="25" viewBox="0 0 24 25" fill="none" xmlns="http://www.w3.org/2000/svg">
<path fill-rule="evenodd" clip-rule="evenodd" d="M20.0159 18.4756C20.5594 18.4756 21 18.035 21 17.4914C21 16.9479 20.5594 16.5073 20.0159 16.5073H3.98411C3.4406 16.5073 3 16.9479 3 17.4914C3 18.035 3.4406 18.4756 3.98411 18.4756H20.0159ZM20.0159 13.555C20.5594 13.555 21 13.1144 21 12.5709C21 12.0274 20.5594 11.5868 20.0159 11.5868H3.98411C3.4406 11.5868 3 12.0274 3 12.5709C3 13.1144 3.4406 13.555 3.98411 13.555H20.0159ZM3 7.65037C3 8.19387 3.4406 8.63447 3.98411 8.63447H20.0159C20.5594 8.63447 21 8.19387 21 7.65037C21 7.10686 20.5594 6.66626 20.0159 6.66626H3.98411C3.4406 6.66626 3 7.10686 3 7.65037Z" fill="#C2D1D9"/>
<mask id="mask0_940_1281" style="mask-type:alpha" maskUnits="userSpaceOnUse" x="3" y="6" width="18" height="13">
<path fill-rule="evenodd" clip-rule="evenodd" d="M20.0159 18.4756C20.5594 18.4756 21 18.035 21 17.4914C21 16.9479 20.5594 16.5073 20.0159 16.5073H3.98411C3.4406 16.5073 3 16.9479 3 17.4914C3 18.035 3.4406 18.4756 3.98411 18.4756H20.0159ZM20.0159 13.555C20.5594 13.555 21 13.1144 21 12.5709C21 12.0274 20.5594 11.5868 20.0159 11.5868H3.98411C3.4406 11.5868 3 12.0274 3 12.5709C3 13.1144 3.4406 13.555 3.98411 13.555H20.0159ZM3 7.65037C3 8.19387 3.4406 8.63447 3.98411 8.63447H20.0159C20.5594 8.63447 21 8.19387 21 7.65037C21 7.10686 20.5594 6.66626 20.0159 6.66626H3.98411C3.4406 6.66626 3 7.10686 3 7.65037Z" fill="white"/>
</mask>
<g mask="url(#mask0_940_1281)">
<rect y="0.761597" width="24" height="23.6186" fill="#424B5A"/>
</g>
</svg>
