<svg width="24" height="26" viewBox="0 0 24 26" fill="none" xmlns="http://www.w3.org/2000/svg">
<path fill-rule="evenodd" clip-rule="evenodd" d="M18.9995 17.3744V11.5772V8.68664C18.9995 7.17716 17.7859 5.95001 16.2936 5.95001H7.70541C6.21314 5.95001 5 7.17716 5 8.68664V11.5772V17.3744C5 18.8844 6.21314 20.1116 7.70541 20.1116H16.2941C17.7859 20.1116 18.9995 18.8844 18.9995 17.3744ZM14.4642 13.03C14.4642 14.4046 13.3572 15.5224 11.9993 15.5224C10.6409 15.5224 9.53479 14.4041 9.53628 13.0295C9.53678 12.4869 9.71079 11.9859 10.0023 11.5767C10.451 10.9489 11.1783 10.5376 12.0007 10.5376C12.8227 10.5376 13.5505 10.9494 13.9982 11.5772C14.2887 11.9864 14.4642 12.4874 14.4642 13.03ZM17.3798 9.98098V7.89178V7.58085L17.071 7.58186L15.0066 7.58838L15.0145 9.989L17.3798 9.98098ZM11.9998 16.903C14.1112 16.903 15.8286 15.1649 15.8286 13.03C15.8286 12.5165 15.7259 12.0255 15.544 11.5772H17.6347V17.3744C17.6347 18.1236 17.0323 18.7305 16.2931 18.7305H7.70491C6.96473 18.7305 6.36336 18.1236 6.36336 17.3744V11.5772H8.45303C8.27257 12.0255 8.17143 12.5165 8.17143 13.03C8.17143 15.1649 9.88828 16.903 11.9998 16.903Z" fill="#505D68"/>
<mask id="mask0_5_2569" style="mask-type:alpha" maskUnits="userSpaceOnUse" x="5" y="5" width="14" height="16">
<path fill-rule="evenodd" clip-rule="evenodd" d="M18.9995 17.3744V11.5772V8.68664C18.9995 7.17716 17.7859 5.95001 16.2936 5.95001H7.70541C6.21314 5.95001 5 7.17716 5 8.68664V11.5772V17.3744C5 18.8844 6.21314 20.1116 7.70541 20.1116H16.2941C17.7859 20.1116 18.9995 18.8844 18.9995 17.3744ZM14.4642 13.03C14.4642 14.4046 13.3572 15.5224 11.9993 15.5224C10.6409 15.5224 9.53479 14.4041 9.53628 13.0295C9.53678 12.4869 9.71079 11.9859 10.0023 11.5767C10.451 10.9489 11.1783 10.5376 12.0007 10.5376C12.8227 10.5376 13.5505 10.9494 13.9982 11.5772C14.2887 11.9864 14.4642 12.4874 14.4642 13.03ZM17.3798 9.98098V7.89178V7.58085L17.071 7.58186L15.0066 7.58838L15.0145 9.989L17.3798 9.98098ZM11.9998 16.903C14.1112 16.903 15.8286 15.1649 15.8286 13.03C15.8286 12.5165 15.7259 12.0255 15.544 11.5772H17.6347V17.3744C17.6347 18.1236 17.0323 18.7305 16.2931 18.7305H7.70491C6.96473 18.7305 6.36336 18.1236 6.36336 17.3744V11.5772H8.45303C8.27257 12.0255 8.17143 12.5165 8.17143 13.03C8.17143 15.1649 9.88828 16.903 11.9998 16.903Z" fill="white"/>
</mask>
<g mask="url(#mask0_5_2569)">
<rect y="0.892334" width="24" height="24.2769" fill="#505D68"/>
</g>
</svg>
