<svg width="24" height="26" viewBox="0 0 24 26" fill="none" xmlns="http://www.w3.org/2000/svg">
<path fill-rule="evenodd" clip-rule="evenodd" d="M18.5076 7.47166L18.4704 7.44657C17.7014 6.70638 16.7961 6.35511 15.7543 6.40529L15.7171 6.33002L15.7419 6.31747C16.6844 6.1042 17.2426 5.87838 17.4162 5.62747C17.4658 5.42674 17.4038 5.31383 17.1929 5.28874C16.7217 5.35147 16.2752 5.45183 15.8907 5.61492C16.3868 5.28874 16.5728 5.06292 16.4612 4.95001C15.9775 4.96256 15.4442 5.21347 14.8985 5.71529C15.0969 5.36401 15.1838 5.16329 15.1341 5.13819C14.8613 5.31383 14.638 5.51456 14.4396 5.72783C14.0179 6.20456 13.6831 6.64366 13.4226 7.04511L13.4102 7.0702C12.7529 8.16166 12.2816 9.25312 12.0087 10.3697L11.9095 10.4575L11.8847 10.47C11.4878 9.96821 11.0041 9.54167 10.4336 9.20294C9.7639 8.7513 8.97015 8.3373 8.05237 7.9233C7.06018 7.39639 6.04318 6.96984 5.02619 6.63111C5.01378 7.79784 5.58429 8.71366 6.68811 9.39112V9.40367C6.30363 9.40367 5.91916 9.46639 5.54709 9.5793C5.6215 10.6582 6.37805 11.3984 7.80432 11.7999L7.79192 11.8249C7.23381 11.7873 6.77492 11.988 6.41526 12.402C6.88655 13.3304 7.71751 13.7695 8.92054 13.7444C8.68489 13.8699 8.49886 13.9953 8.37484 14.1459C8.15159 14.3842 8.07718 14.6602 8.15159 14.9739C8.41204 15.4506 8.87093 15.6639 9.55306 15.6262L9.59027 15.6764L9.57787 15.7015C8.39964 16.931 6.97336 17.483 5.31144 17.3701L5.28664 17.3826C4.26964 17.3701 3.17823 16.8808 2 15.9022C3.17823 17.621 4.75333 18.863 6.70051 19.6533C8.92054 20.3935 11.153 20.4563 13.373 19.8164H13.4102C15.5682 19.1892 17.3914 17.8844 18.9045 15.9273C19.599 14.9111 20.0331 13.9326 20.2067 12.9917C21.3353 13.0293 22.1415 12.7031 22.65 12.0006L22.6376 11.9755C22.2531 12.1135 21.5214 12.0759 20.4424 11.85V11.7246C21.633 11.5866 22.3399 11.1977 22.5632 10.5579C21.7322 10.884 20.9137 10.8966 20.1075 10.5829C19.9587 9.45385 19.4254 8.41257 18.5076 7.47166Z" fill="#505D68"/>
<mask id="mask0_5_2571" style="mask-type:alpha" maskUnits="userSpaceOnUse" x="2" y="4" width="21" height="17">
<path fill-rule="evenodd" clip-rule="evenodd" d="M18.5076 7.47166L18.4704 7.44657C17.7014 6.70638 16.7961 6.35511 15.7543 6.40529L15.7171 6.33002L15.7419 6.31747C16.6844 6.1042 17.2426 5.87838 17.4162 5.62747C17.4658 5.42674 17.4038 5.31383 17.1929 5.28874C16.7217 5.35147 16.2752 5.45183 15.8907 5.61492C16.3868 5.28874 16.5728 5.06292 16.4612 4.95001C15.9775 4.96256 15.4442 5.21347 14.8985 5.71529C15.0969 5.36401 15.1838 5.16329 15.1341 5.13819C14.8613 5.31383 14.638 5.51456 14.4396 5.72783C14.0179 6.20456 13.6831 6.64366 13.4226 7.04511L13.4102 7.0702C12.7529 8.16166 12.2816 9.25312 12.0087 10.3697L11.9095 10.4575L11.8847 10.47C11.4878 9.96821 11.0041 9.54167 10.4336 9.20294C9.7639 8.7513 8.97015 8.3373 8.05237 7.9233C7.06018 7.39639 6.04318 6.96984 5.02619 6.63111C5.01378 7.79784 5.58429 8.71366 6.68811 9.39112V9.40367C6.30363 9.40367 5.91916 9.46639 5.54709 9.5793C5.6215 10.6582 6.37805 11.3984 7.80432 11.7999L7.79192 11.8249C7.23381 11.7873 6.77492 11.988 6.41526 12.402C6.88655 13.3304 7.71751 13.7695 8.92054 13.7444C8.68489 13.8699 8.49886 13.9953 8.37484 14.1459C8.15159 14.3842 8.07718 14.6602 8.15159 14.9739C8.41204 15.4506 8.87093 15.6639 9.55306 15.6262L9.59027 15.6764L9.57787 15.7015C8.39964 16.931 6.97336 17.483 5.31144 17.3701L5.28664 17.3826C4.26964 17.3701 3.17823 16.8808 2 15.9022C3.17823 17.621 4.75333 18.863 6.70051 19.6533C8.92054 20.3935 11.153 20.4563 13.373 19.8164H13.4102C15.5682 19.1892 17.3914 17.8844 18.9045 15.9273C19.599 14.9111 20.0331 13.9326 20.2067 12.9917C21.3353 13.0293 22.1415 12.7031 22.65 12.0006L22.6376 11.9755C22.2531 12.1135 21.5214 12.0759 20.4424 11.85V11.7246C21.633 11.5866 22.3399 11.1977 22.5632 10.5579C21.7322 10.884 20.9137 10.8966 20.1075 10.5829C19.9587 9.45385 19.4254 8.41257 18.5076 7.47166Z" fill="white"/>
</mask>
<g mask="url(#mask0_5_2571)">
<rect y="0.90387" width="24" height="24.2769" fill="#505D68"/>
</g>
</svg>
